{"asset":{"generator":"Novorender","version":"2.0"},"scene":0,"scenes":[{"nodes":[32]}],"nodes":[{"name":"0","mesh":0},{"name":"0","mesh":1},{"name":"0","mesh":2},{"name":"0","mesh":3},{"name":"0","mesh":4},{"name":"0","mesh":5},{"name":"0","mesh":6},{"name":"0","mesh":7},{"name":"0","mesh":8},{"name":"0","mesh":9},{"name":"0","mesh":10},{"name":"0","mesh":11},{"name":"0","mesh":12},{"name":"0","mesh":13},{"name":"0","mesh":14},{"name":"0","mesh":15},{"name":"0","mesh":16},{"name":"0","mesh":17},{"name":"0","mesh":18},{"name":"0","mesh":19},{"name":"0","mesh":20},{"name":"0","mesh":21},{"name":"0","mesh":22},{"name":"0","mesh":23},{"name":"0","mesh":24},{"name":"0","mesh":25},{"name":"0","mesh":26},{"name":"0","mesh":27},{"name":"0","mesh":28},{"name":"0","mesh":29},{"name":"0","mesh":30},{"name":"0","mesh":31},{"children":[0,1,2,3,4,5,6,7,8,9,10,11,12,13,14,15,16,17,18,19,20,21,22,23,24,25,26,27,28,29,30,31],"name":"root"}],"materials":[{"pbrMetallicRoughness":{"baseColorFactor":[1.0,1.0,1.0,1.0],"baseColorTexture":{"index":0}},"alphaMode":"BLEND","extensions":{"KHR_materials_unlit":{}}},{"pbrMetallicRoughness":{"baseColorFactor":[1.0,1.0,1.0,1.0],"baseColorTexture":{"index":1}},"alphaMode":"BLEND","extensions":{"KHR_materials_unlit":{}}},{"pbrMetallicRoughness":{"baseColorFactor":[1.0,1.0,1.0,1.0],"baseColorTexture":{"index":2}},"alphaMode":"BLEND","extensions":{"KHR_materials_unlit":{}}},{"pbrMetallicRoughness":{"baseColorFactor":[1.0,1.0,1.0,1.0],"baseColorTexture":{"index":3}},"alphaMode":"BLEND","extensions":{"KHR_materials_unlit":{}}},{"pbrMetallicRoughness":{"baseColorFactor":[1.0,1.0,1.0,1.0],"baseColorTexture":{"index":4}},"alphaMode":"BLEND","extensions":{"KHR_materials_unlit":{}}},{"pbrMetallicRoughness":{"baseColorFactor":[1.0,1.0,1.0,1.0],"baseColorTexture":{"index":5}},"alphaMode":"BLEND","extensions":{"KHR_materials_unlit":{}}},{"pbrMetallicRoughness":{"baseColorFactor":[1.0,1.0,1.0,1.0],"baseColorTexture":{"index":6}},"alphaMode":"BLEND","extensions":{"KHR_materials_unlit":{}}},{"pbrMetallicRoughness":{"baseColorFactor":[1.0,1.0,1.0,1.0],"baseColorTexture":{"index":7}},"alphaMode":"BLEND","extensions":{"KHR_materials_unlit":{}}},{"pbrMetallicRoughness":{"baseColorFactor":[1.0,1.0,1.0,1.0],"baseColorTexture":{"index":8}},"alphaMode":"BLEND","extensions":{"KHR_materials_unlit":{}}},{"pbrMetallicRoughness":{"baseColorFactor":[1.0,1.0,1.0,1.0],"baseColorTexture":{"index":9}},"alphaMode":"BLEND","extensions":{"KHR_materials_unlit":{}}},{"pbrMetallicRoughness":{"baseColorFactor":[1.0,1.0,1.0,1.0],"baseColorTexture":{"index":10}},"alphaMode":"BLEND","extensions":{"KHR_materials_unlit":{}}},{"pbrMetallicRoughness":{"baseColorFactor":[1.0,1.0,1.0,1.0],"baseColorTexture":{"index":11}},"alphaMode":"BLEND","extensions":{"KHR_materials_unlit":{}}},{"pbrMetallicRoughness":{"baseColorFactor":[1.0,1.0,1.0,1.0],"baseColorTexture":{"index":12}},"alphaMode":"BLEND","extensions":{"KHR_materials_unlit":{}}},{"pbrMetallicRoughness":{"baseColorFactor":[1.0,1.0,1.0,1.0],"baseColorTexture":{"index":13}},"alphaMode":"BLEND","extensions":{"KHR_materials_unlit":{}}},{"pbrMetallicRoughness":{"baseColorFactor":[1.0,1.0,1.0,1.0],"baseColorTexture":{"index":14}},"alphaMode":"BLEND","extensions":{"KHR_materials_unlit":{}}},{"pbrMetallicRoughness":{"baseColorFactor":[1.0,1.0,1.0,1.0],"baseColorTexture":{"index":15}},"alphaMode":"BLEND","extensions":{"KHR_materials_unlit":{}}},{"pbrMetallicRoughness":{"baseColorFactor":[1.0,1.0,1.0,1.0],"baseColorTexture":{"index":16}},"alphaMode":"BLEND","extensions":{"KHR_materials_unlit":{}}},{"pbrMetallicRoughness":{"baseColorFactor":[1.0,1.0,1.0,1.0],"baseColorTexture":{"index":17}},"alphaMode":"BLEND","extensions":{"KHR_materials_unlit":{}}},{"pbrMetallicRoughness":{"baseColorFactor":[1.0,1.0,1.0,1.0],"baseColorTexture":{"index":18}},"alphaMode":"BLEND","extensions":{"KHR_materials_unlit":{}}},{"pbrMetallicRoughness":{"baseColorFactor":[1.0,1.0,1.0,1.0],"baseColorTexture":{"index":19}},"alphaMode":"BLEND","extensions":{"KHR_materials_unlit":{}}},{"pbrMetallicRoughness":{"baseColorFactor":[1.0,1.0,1.0,1.0],"baseColorTexture":{"index":20}},"alphaMode":"BLEND","extensions":{"KHR_materials_unlit":{}}},{"pbrMetallicRoughness":{"baseColorFactor":[1.0,1.0,1.0,1.0],"baseColorTexture":{"index":21}},"alphaMode":"BLEND","extensions":{"KHR_materials_unlit":{}}},{"pbrMetallicRoughness":{"baseColorFactor":[1.0,1.0,1.0,1.0],"baseColorTexture":{"index":22}},"alphaMode":"BLEND","extensions":{"KHR_materials_unlit":{}}},{"pbrMetallicRoughness":{"baseColorFactor":[1.0,1.0,1.0,1.0],"baseColorTexture":{"index":23}},"alphaMode":"BLEND","extensions":{"KHR_materials_unlit":{}}},{"pbrMetallicRoughness":{"baseColorFactor":[1.0,1.0,1.0,1.0],"baseColorTexture":{"index":24}},"alphaMode":"BLEND","extensions":{"KHR_materials_unlit":{}}},{"pbrMetallicRoughness":{"baseColorFactor":[1.0,1.0,1.0,1.0],"baseColorTexture":{"index":25}},"alphaMode":"BLEND","extensions":{"KHR_materials_unlit":{}}},{"pbrMetallicRoughness":{"baseColorFactor":[1.0,1.0,1.0,1.0],"baseColorTexture":{"index":26}},"alphaMode":"BLEND","extensions":{"KHR_materials_unlit":{}}},{"pbrMetallicRoughness":{"baseColorFactor":[1.0,1.0,1.0,1.0],"baseColorTexture":{"index":27}},"alphaMode":"BLEND","extensions":{"KHR_materials_unlit":{}}},{"pbrMetallicRoughness":{"baseColorFactor":[1.0,1.0,1.0,1.0],"baseColorTexture":{"index":28}},"alphaMode":"BLEND","extensions":{"KHR_materials_unlit":{}}},{"pbrMetallicRoughness":{"baseColorFactor":[1.0,1.0,1.0,1.0],"baseColorTexture":{"index":29}},"alphaMode":"BLEND","extensions":{"KHR_materials_unlit":{}}},{"pbrMetallicRoughness":{"baseColorFactor":[1.0,1.0,1.0,1.0],"baseColorTexture":{"index":30}},"alphaMode":"BLEND","extensions":{"KHR_materials_unlit":{}}},{"pbrMetallicRoughness":{"baseColorFactor":[1.0,1.0,1.0,1.0],"baseColorTexture":{"index":31}},"alphaMode":"BLEND","extensions":{"KHR_materials_unlit":{}}}],"meshes":[{"primitives":[{"attributes":{"POSITION":0,"TEXCOORD_0":1},"mode":4,"material":0}]},{"primitives":[{"attributes":{"POSITION":2,"TEXCOORD_0":3},"mode":4,"material":1}]},{"primitives":[{"attributes":{"POSITION":4,"TEXCOORD_0":5},"mode":4,"material":2}]},{"primitives":[{"attributes":{"POSITION":6,"TEXCOORD_0":7},"mode":4,"material":3}]},{"primitives":[{"attributes":{"POSITION":8,"TEXCOORD_0":9},"mode":4,"material":4}]},{"primitives":[{"attributes":{"POSITION":10,"TEXCOORD_0":11},"mode":4,"material":5}]},{"primitives":[{"attributes":{"POSITION":12,"TEXCOORD_0":13},"mode":4,"material":6}]},{"primitives":[{"attributes":{"POSITION":14,"TEXCOORD_0":15},"mode":4,"material":7}]},{"primitives":[{"attributes":{"POSITION":16,"TEXCOORD_0":17},"mode":4,"material":8}]},{"primitives":[{"attributes":{"POSITION":18,"TEXCOORD_0":19},"mode":4,"material":9}]},{"primitives":[{"attributes":{"POSITION":20,"TEXCOORD_0":21},"mode":4,"material":10}]},{"primitives":[{"attributes":{"POSITION":22,"TEXCOORD_0":23},"mode":4,"material":11}]},{"primitives":[{"attributes":{"POSITION":24,"TEXCOORD_0":25},"mode":4,"material":12}]},{"primitives":[{"attributes":{"POSITION":26,"TEXCOORD_0":27},"mode":4,"material":13}]},{"primitives":[{"attributes":{"POSITION":28,"TEXCOORD_0":29},"mode":4,"material":14}]},{"primitives":[{"attributes":{"POSITION":30,"TEXCOORD_0":31},"mode":4,"material":15}]},{"primitives":[{"attributes":{"POSITION":32,"TEXCOORD_0":33},"mode":4,"material":16}]},{"primitives":[{"attributes":{"POSITION":34,"TEXCOORD_0":35},"mode":4,"material":17}]},{"primitives":[{"attributes":{"POSITION":36,"TEXCOORD_0":37},"mode":4,"material":18}]},{"primitives":[{"attributes":{"POSITION":38,"TEXCOORD_0":39},"mode":4,"material":19}]},{"primitives":[{"attributes":{"POSITION":40,"TEXCOORD_0":41},"mode":4,"material":20}]},{"primitives":[{"attributes":{"POSITION":42,"TEXCOORD_0":43},"mode":4,"material":21}]},{"primitives":[{"attributes":{"POSITION":44,"TEXCOORD_0":45},"mode":4,"material":22}]},{"primitives":[{"attributes":{"POSITION":46,"TEXCOORD_0":47},"mode":4,"material":23}]},{"primitives":[{"attributes":{"POSITION":48,"TEXCOORD_0":49},"mode":4,"material":24}]},{"primitives":[{"attributes":{"POSITION":50,"TEXCOORD_0":51},"mode":4,"material":25}]},{"primitives":[{"attributes":{"POSITION":52,"TEXCOORD_0":53},"mode":4,"material":26}]},{"primitives":[{"attributes":{"POSITION":54,"TEXCOORD_0":55},"mode":4,"material":27}]},{"primitives":[{"attributes":{"POSITION":56,"TEXCOORD_0":57},"mode":4,"material":28}]},{"primitives":[{"attributes":{"POSITION":58,"TEXCOORD_0":59},"mode":4,"material":29}]},{"primitives":[{"attributes":{"POSITION":60,"TEXCOORD_0":61},"mode":4,"material":30}]},{"primitives":[{"attributes":{"POSITION":62,"TEXCOORD_0":63},"mode":4,"material":31}]}],"accessors":[{"bufferView":1,"componentType":5126,"count":6,"type":"VEC3","min":[3508.0,0.0,0.0],"max":[3617.625,77.5,0.0]},{"bufferView":1,"byteOffset":12,"componentType":5126,"count":6,"type":"VEC2"},{"bufferView":3,"componentType":5126,"count":6,"type":"VEC3","min":[3508.0,0.0,0.0],"max":[3617.625,77.5,0.0]},{"bufferView":3,"byteOffset":12,"componentType":5126,"count":6,"type":"VEC2"},{"bufferView":5,"componentType":5126,"count":6,"type":"VEC3","min":[3508.0,0.0,0.0],"max":[3617.625,77.5,0.0]},{"bufferView":5,"byteOffset":12,"componentType":5126,"count":6,"type":"VEC2"},{"bufferView":7,"componentType":5126,"count":6,"type":"VEC3","min":[3508.0,0.0,0.0],"max":[3617.625,77.5,0.0]},{"bufferView":7,"byteOffset":12,"componentType":5126,"count":6,"type":"VEC2"},{"bufferView":9,"componentType":5126,"count":6,"type":"VEC3","min":[3508.0,0.0,0.0],"max":[3617.625,77.5,0.0]},{"bufferView":9,"byteOffset":12,"componentType":5126,"count":6,"type":"VEC2"},{"bufferView":11,"componentType":5126,"count":6,"type":"VEC3","min":[3508.0,0.0,0.0],"max":[3617.625,77.5,0.0]},{"bufferView":11,"byteOffset":12,"componentType":5126,"count":6,"type":"VEC2"},{"bufferView":13,"componentType":5126,"count":6,"type":"VEC3","min":[3508.0,0.0,0.0],"max":[3617.625,77.5,0.0]},{"bufferView":13,"byteOffset":12,"componentType":5126,"count":6,"type":"VEC2"},{"bufferView":15,"componentType":5126,"count":6,"type":"VEC3","min":[3508.0,0.0,0.0],"max":[3617.625,77.5,0.0]},{"bufferView":15,"byteOffset":12,"componentType":5126,"count":6,"type":"VEC2"},{"bufferView":17,"componentType":5126,"count":6,"type":"VEC3","min":[3508.0,0.0,0.0],"max":[3617.625,77.5,0.0]},{"bufferView":17,"byteOffset":12,"componentType":5126,"count":6,"type":"VEC2"},{"bufferView":19,"componentType":5126,"count":6,"type":"VEC3","min":[3508.0,0.0,0.0],"max":[3617.625,77.5,0.0]},{"bufferView":19,"byteOffset":12,"componentType":5126,"count":6,"type":"VEC2"},{"bufferView":21,"componentType":5126,"count":6,"type":"VEC3","min":[3508.0,0.0,0.0],"max":[3617.625,77.5,0.0]},{"bufferView":21,"byteOffset":12,"componentType":5126,"count":6,"type":"VEC2"},{"bufferView":23,"componentType":5126,"count":6,"type":"VEC3","min":[3508.0,0.0,0.0],"max":[3617.625,77.5,0.0]},{"bufferView":23,"byteOffset":12,"componentType":5126,"count":6,"type":"VEC2"},{"bufferView":25,"componentType":5126,"count":6,"type":"VEC3","min":[3508.0,0.0,0.0],"max":[3617.625,77.5,0.0]},{"bufferView":25,"byteOffset":12,"componentType":5126,"count":6,"type":"VEC2"},{"bufferView":27,"componentType":5126,"count":6,"type":"VEC3","min":[3508.0,0.0,0.0],"max":[3617.625,77.5,0.0]},{"bufferView":27,"byteOffset":12,"componentType":5126,"count":6,"type":"VEC2"},{"bufferView":29,"componentType":5126,"count":6,"type":"VEC3","min":[3508.0,0.0,0.0],"max":[3617.625,77.5,0.0]},{"bufferView":29,"byteOffset":12,"componentType":5126,"count":6,"type":"VEC2"},{"bufferView":31,"componentType":5126,"count":6,"type":"VEC3","min":[3508.0,0.0,0.0],"max":[3617.625,77.5,0.0]},{"bufferView":31,"byteOffset":12,"componentType":5126,"count":6,"type":"VEC2"},{"bufferView":33,"componentType":5126,"count":6,"type":"VEC3","min":[3508.0,0.0,0.0],"max":[3617.625,77.5,0.0]},{"bufferView":33,"byteOffset":12,"componentType":5126,"count":6,"type":"VEC2"},{"bufferView":35,"componentType":5126,"count":6,"type":"VEC3","min":[3508.0,0.0,0.0],"max":[3617.625,77.5,0.0]},{"bufferView":35,"byteOffset":12,"componentType":5126,"count":6,"type":"VEC2"},{"bufferView":37,"componentType":5126,"count":6,"type":"VEC3","min":[3508.0,0.0,0.0],"max":[3617.625,77.5,0.0]},{"bufferView":37,"byteOffset":12,"componentType":5126,"count":6,"type":"VEC2"},{"bufferView":39,"componentType":5126,"count":6,"type":"VEC3","min":[3508.0,0.0,0.0],"max":[3617.625,77.5,0.0]},{"bufferView":39,"byteOffset":12,"componentType":5126,"count":6,"type":"VEC2"},{"bufferView":41,"componentType":5126,"count":6,"type":"VEC3","min":[3508.0,0.0,0.0],"max":[3617.625,77.5,0.0]},{"bufferView":41,"byteOffset":12,"componentType":5126,"count":6,"type":"VEC2"},{"bufferView":43,"componentType":5126,"count":6,"type":"VEC3","min":[3508.0,0.0,0.0],"max":[3617.625,77.5,0.0]},{"bufferView":43,"byteOffset":12,"componentType":5126,"count":6,"type":"VEC2"},{"bufferView":45,"componentType":5126,"count":6,"type":"VEC3","min":[3508.0,0.0,0.0],"max":[3617.625,77.5,0.0]},{"bufferView":45,"byteOffset":12,"componentType":5126,"count":6,"type":"VEC2"},{"bufferView":47,"componentType":5126,"count":6,"type":"VEC3","min":[3508.0,0.0,0.0],"max":[3617.625,77.5,0.0]},{"bufferView":47,"byteOffset":12,"componentType":5126,"count":6,"type":"VEC2"},{"bufferView":49,"componentType":5126,"count":6,"type":"VEC3","min":[3508.0,0.0,0.0],"max":[3617.625,77.5,0.0]},{"bufferView":49,"byteOffset":12,"componentType":5126,"count":6,"type":"VEC2"},{"bufferView":51,"componentType":5126,"count":6,"type":"VEC3","min":[3508.0,0.0,0.0],"max":[3617.625,77.5,0.0]},{"bufferView":51,"byteOffset":12,"componentType":5126,"count":6,"type":"VEC2"},{"bufferView":53,"componentType":5126,"count":6,"type":"VEC3","min":[3508.0,0.0,0.0],"max":[3617.625,77.5,0.0]},{"bufferView":53,"byteOffset":12,"componentType":5126,"count":6,"type":"VEC2"},{"bufferView":55,"componentType":5126,"count":6,"type":"VEC3","min":[3508.0,0.0,0.0],"max":[3617.625,77.5,0.0]},{"bufferView":55,"byteOffset":12,"componentType":5126,"count":6,"type":"VEC2"},{"bufferView":57,"componentType":5126,"count":6,"type":"VEC3","min":[3508.0,0.0,0.0],"max":[3617.625,77.5,0.0]},{"bufferView":57,"byteOffset":12,"componentType":5126,"count":6,"type":"VEC2"},{"bufferView":59,"componentType":5126,"count":6,"type":"VEC3","min":[3508.0,0.0,0.0],"max":[3617.625,77.5,0.0]},{"bufferView":59,"byteOffset":12,"componentType":5126,"count":6,"type":"VEC2"},{"bufferView":61,"componentType":5126,"count":6,"type":"VEC3","min":[3508.0,0.0,0.0],"max":[3617.625,77.5,0.0]},{"bufferView":61,"byteOffset":12,"componentType":5126,"count":6,"type":"VEC2"},{"bufferView":63,"componentType":5126,"count":6,"type":"VEC3","min":[3508.0,0.0,0.0],"max":[3617.625,77.5,0.0]},{"bufferView":63,"byteOffset":12,"componentType":5126,"count":6,"type":"VEC2"}],"bufferViews":[{"buffer":0,"byteOffset":0,"byteLength":733},{"buffer":0,"byteOffset":736,"byteLength":120,"byteStride":20,"target":34962},{"buffer":0,"byteOffset":856,"byteLength":197},{"buffer":0,"byteOffset":1056,"byteLength":120,"byteStride":20,"target":34962},{"buffer":0,"byteOffset":1176,"byteLength":183},{"buffer":0,"byteOffset":1360,"byteLength":120,"byteStride":20,"target":34962},{"buffer":0,"byteOffset":1480,"byteLength":964},{"buffer":0,"byteOffset":2444,"byteLength":120,"byteStride":20,"target":34962},{"buffer":0,"byteOffset":2564,"byteLength":1841},{"buffer":0,"byteOffset":4408,"byteLength":120,"byteStride":20,"target":34962},{"buffer":0,"byteOffset":4528,"byteLength":14430},{"buffer":0,"byteOffset":18960,"byteLength":120,"byteStride":20,"target":34962},{"buffer":0,"byteOffset":19080,"byteLength":6834},{"buffer":0,"byteOffset":25916,"byteLength":120,"byteStride":20,"target":34962},{"buffer":0,"byteOffset":26036,"byteLength":4607},{"buffer":0,"byteOffset":30644,"byteLength":120,"byteStride":20,"target":34962},{"buffer":0,"byteOffset":30764,"byteLength":24698},{"buffer":0,"byteOffset":55464,"byteLength":120,"byteStride":20,"target":34962},{"buffer":0,"byteOffset":55584,"byteLength":31286},{"buffer":0,"byteOffset":86872,"byteLength":120,"byteStride":20,"target":34962},{"buffer":0,"byteOffset":86992,"byteLength":12475},{"buffer":0,"byteOffset":99468,"byteLength":120,"byteStride":20,"target":34962},{"buffer":0,"byteOffset":99588,"byteLength":8465},{"buffer":0,"byteOffset":108056,"byteLength":120,"byteStride":20,"target":34962},{"buffer":0,"byteOffset":108176,"byteLength":15785},{"buffer":0,"byteOffset":123964,"byteLength":120,"byteStride":20,"target":34962},{"buffer":0,"byteOffset":124084,"byteLength":16029},{"buffer":0,"byteOffset":140116,"byteLength":120,"byteStride":20,"target":34962},{"buffer":0,"byteOffset":140236,"byteLength":2404},{"buffer":0,"byteOffset":142640,"byteLength":120,"byteStride":20,"target":34962},{"buffer":0,"byteOffset":142760,"byteLength":18144},{"buffer":0,"byteOffset":160904,"byteLength":120,"byteStride":20,"target":34962},{"buffer":0,"byteOffset":161024,"byteLength":19311},{"buffer":0,"byteOffset":180336,"byteLength":120,"byteStride":20,"target":34962},{"buffer":0,"byteOffset":180456,"byteLength":40018},{"buffer":0,"byteOffset":220476,"byteLength":120,"byteStride":20,"target":34962},{"buffer":0,"byteOffset":220596,"byteLength":2295},{"buffer":0,"byteOffset":222892,"byteLength":120,"byteStride":20,"target":34962},{"buffer":0,"byteOffset":223012,"byteLength":5063},{"buffer":0,"byteOffset":228076,"byteLength":120,"byteStride":20,"target":34962},{"buffer":0,"byteOffset":228196,"byteLength":10269},{"buffer":0,"byteOffset":238468,"byteLength":120,"byteStride":20,"target":34962},{"buffer":0,"byteOffset":238588,"byteLength":183},{"buffer":0,"byteOffset":238772,"byteLength":120,"byteStride":20,"target":34962},{"buffer":0,"byteOffset":238892,"byteLength":14214},{"buffer":0,"byteOffset":253108,"byteLength":120,"byteStride":20,"target":34962},{"buffer":0,"byteOffset":253228,"byteLength":12952},{"buffer":0,"byteOffset":266180,"byteLength":120,"byteStride":20,"target":34962},{"buffer":0,"byteOffset":266300,"byteLength":12083},{"buffer":0,"byteOffset":278384,"byteLength":120,"byteStride":20,"target":34962},{"buffer":0,"byteOffset":278504,"byteLength":3083},{"buffer":0,"byteOffset":281588,"byteLength":120,"byteStride":20,"target":34962},{"buffer":0,"byteOffset":281708,"byteLength":15166},{"buffer":0,"byteOffset":296876,"byteLength":120,"byteStride":20,"target":34962},{"buffer":0,"byteOffset":296996,"byteLength":8471},{"buffer":0,"byteOffset":305468,"byteLength":120,"byteStride":20,"target":34962},{"buffer":0,"byteOffset":305588,"byteLength":1666},{"buffer":0,"byteOffset":307256,"byteLength":120,"byteStride":20,"target":34962},{"buffer":0,"byteOffset":307376,"byteLength":3259},{"buffer":0,"byteOffset":310636,"byteLength":120,"byteStride":20,"target":34962},{"buffer":0,"byteOffset":310756,"byteLength":2113},{"buffer":0,"byteOffset":312872,"byteLength":120,"byteStride":20,"target":34962},{"buffer":0,"byteOffset":312992,"byteLength":232},{"buffer":0,"byteOffset":313224,"byteLength":120,"byteStride":20,"target":34962}],"textures":[{"source":0},{"source":1},{"source":2},{"source":3},{"source":4},{"source":5},{"source":6},{"source":7},{"source":8},{"source":9},{"source":10},{"source":11},{"source":12},{"source":13},{"source":14},{"source":15},{"source":16},{"source":17},{"source":18},{"source":19},{"source":20},{"source":21},{"source":22},{"source":23},{"source":24},{"source":25},{"source":26},{"source":27},{"source":28},{"source":29},{"source":30},{"source":31}],"images":[{"mimeType":"image/png","bufferView":0},{"mimeType":"image/png","bufferView":2},{"mimeType":"image/png","bufferView":4},{"mimeType":"image/png","bufferView":6},{"mimeType":"image/png","bufferView":8},{"mimeType":"image/png","bufferView":10},{"mimeType":"image/png","bufferView":12},{"mimeType":"image/png","bufferView":14},{"mimeType":"image/png","bufferView":16},{"mimeType":"image/png","bufferView":18},{"mimeType":"image/png","bufferView":20},{"mimeType":"image/png","bufferView":22},{"mimeType":"image/png","bufferView":24},{"mimeType":"image/png","bufferView":26},{"mimeType":"image/png","bufferView":28},{"mimeType":"image/png","bufferView":30},{"mimeType":"image/png","bufferView":32},{"mimeType":"image/png","bufferView":34},{"mimeType":"image/png","bufferView":36},{"mimeType":"image/png","bufferView":38},{"mimeType":"image/png","bufferView":40},{"mimeType":"image/png","bufferView":42},{"mimeType":"image/png","bufferView":44},{"mimeType":"image/png","bufferView":46},{"mimeType":"image/png","bufferView":48},{"mimeType":"image/png","bufferView":50},{"mimeType":"image/png","bufferView":52},{"mimeType":"image/png","bufferView":54},{"mimeType":"image/png","bufferView":56},{"mimeType":"image/png","bufferView":58},{"mimeType":"image/png","bufferView":60},{"mimeType":"image/png","bufferView":62}],"buffers":[{"byteLength":313344,"uri":"A-PL-V-200-0100 Plan-01.bin"}],"extensionsUsed":["KHR_materials_unlit"]}